<svg id="Layer_1" data-name="Layer 1" xmlns="http://www.w3.org/2000/svg" viewBox="0 0 375 368.5"><path d="M152.39,199.21l56.78-82.38v-12H129.73v15.36h56.32l-56.7,81.93v12.35H211V199.21Z" transform="translate(-62.5 -53.25)"/><path d="M346,104.78l-31.55,84-31.63-84H258.16V214.42h19V178.27L275.25,130l32.3,84.41h13.63l32.38-84.49-1.88,48.34v36.15h19V104.78Z" transform="translate(-62.5 -53.25)"/><path d="M288.19,251.17v71H211.92v-71H182.28V421.75h29.64V346.07h76.27v75.68h29.53V251.17Z" transform="translate(-62.5 -53.25)"/><path d="M390.32,78.25A162.6,162.6,0,0,1,317.72,308a162,162,0,0,1-53.89,14.16q-6.84.57-13.83.58t-13.83-.58A162.55,162.55,0,0,1,109.68,78.25H390.32m14.33-25H95.35L88.11,65.61a187.41,187.41,0,0,0,146,281.47c5.34.45,10.69.67,15.94.67s10.6-.22,15.91-.67a186.93,186.93,0,0,0,62.24-16.35A187.6,187.6,0,0,0,411.89,65.61l-7.24-12.36Z" transform="translate(-62.5 -53.25)"/></svg>